<mxfile host="app.diagrams.net" modified="2021-12-17T16:08:22.769Z" agent="5.0 (Windows NT 10.0; Win64; x64) AppleWebKit/537.36 (KHTML, like Gecko) Chrome/96.0.4664.110 Safari/537.36" etag="uJj8aVBG_r18PABSbVv_" version="15.9.6" type="github">
  <diagram id="C5RBs43oDa-KdzZeNtuy" name="Page-1">
    <mxGraphModel dx="1057" dy="1777" grid="1" gridSize="10" guides="1" tooltips="1" connect="1" arrows="1" fold="1" page="1" pageScale="1" pageWidth="827" pageHeight="1169" math="0" shadow="0">
      <root>
        <mxCell id="WIyWlLk6GJQsqaUBKTNV-0" />
        <mxCell id="WIyWlLk6GJQsqaUBKTNV-1" parent="WIyWlLk6GJQsqaUBKTNV-0" />
        <mxCell id="XHGAcSni-Kbprlse5u6Y-3" value="" style="edgeStyle=orthogonalEdgeStyle;rounded=0;orthogonalLoop=1;jettySize=auto;html=1;entryX=0;entryY=0.5;entryDx=0;entryDy=0;" parent="WIyWlLk6GJQsqaUBKTNV-1" source="WIyWlLk6GJQsqaUBKTNV-3" target="XHGAcSni-Kbprlse5u6Y-14" edge="1">
          <mxGeometry relative="1" as="geometry">
            <mxPoint x="340" y="100" as="targetPoint" />
            <Array as="points" />
          </mxGeometry>
        </mxCell>
        <mxCell id="XHGAcSni-Kbprlse5u6Y-55" value="" style="edgeStyle=orthogonalEdgeStyle;rounded=0;orthogonalLoop=1;jettySize=auto;html=1;" parent="WIyWlLk6GJQsqaUBKTNV-1" source="WIyWlLk6GJQsqaUBKTNV-3" target="XHGAcSni-Kbprlse5u6Y-14" edge="1">
          <mxGeometry relative="1" as="geometry" />
        </mxCell>
        <mxCell id="WIyWlLk6GJQsqaUBKTNV-3" value="NHANES original datasets (1999-2018)&amp;nbsp;" style="rounded=1;whiteSpace=wrap;html=1;fontSize=12;glass=0;strokeWidth=1;shadow=0;" parent="WIyWlLk6GJQsqaUBKTNV-1" vertex="1">
          <mxGeometry x="100" y="80" width="140" height="40" as="geometry" />
        </mxCell>
        <mxCell id="XHGAcSni-Kbprlse5u6Y-11" value="" style="edgeStyle=orthogonalEdgeStyle;rounded=0;orthogonalLoop=1;jettySize=auto;html=1;" parent="WIyWlLk6GJQsqaUBKTNV-1" source="XHGAcSni-Kbprlse5u6Y-9" edge="1">
          <mxGeometry relative="1" as="geometry">
            <mxPoint x="255" y="100" as="targetPoint" />
          </mxGeometry>
        </mxCell>
        <mxCell id="XHGAcSni-Kbprlse5u6Y-9" value="Basic data merge and cleaning" style="rounded=1;whiteSpace=wrap;html=1;" parent="WIyWlLk6GJQsqaUBKTNV-1" vertex="1">
          <mxGeometry x="190" width="130" height="50" as="geometry" />
        </mxCell>
        <mxCell id="XHGAcSni-Kbprlse5u6Y-20" value="" style="edgeStyle=orthogonalEdgeStyle;rounded=0;orthogonalLoop=1;jettySize=auto;html=1;" parent="WIyWlLk6GJQsqaUBKTNV-1" source="XHGAcSni-Kbprlse5u6Y-14" target="XHGAcSni-Kbprlse5u6Y-19" edge="1">
          <mxGeometry relative="1" as="geometry" />
        </mxCell>
        <mxCell id="XHGAcSni-Kbprlse5u6Y-14" value="Dataset used for analysis" style="rounded=1;whiteSpace=wrap;html=1;fontSize=12;glass=0;strokeWidth=1;shadow=0;" parent="WIyWlLk6GJQsqaUBKTNV-1" vertex="1">
          <mxGeometry x="310" y="80" width="120" height="40" as="geometry" />
        </mxCell>
        <mxCell id="XHGAcSni-Kbprlse5u6Y-19" value="Oversampling using SMOTE" style="rounded=1;whiteSpace=wrap;html=1;fontSize=12;glass=0;strokeWidth=1;shadow=0;" parent="WIyWlLk6GJQsqaUBKTNV-1" vertex="1">
          <mxGeometry x="460" y="80" width="120" height="40" as="geometry" />
        </mxCell>
        <mxCell id="XHGAcSni-Kbprlse5u6Y-21" value="Inclusion/exclusion criteria apply" style="rounded=1;whiteSpace=wrap;html=1;" parent="WIyWlLk6GJQsqaUBKTNV-1" vertex="1">
          <mxGeometry x="220" y="140" width="120" height="40" as="geometry" />
        </mxCell>
        <mxCell id="XHGAcSni-Kbprlse5u6Y-29" value="" style="strokeWidth=2;html=1;shape=mxgraph.flowchart.annotation_2;align=left;labelPosition=right;pointerEvents=1;" parent="WIyWlLk6GJQsqaUBKTNV-1" vertex="1">
          <mxGeometry x="580" y="50" width="70" height="100" as="geometry" />
        </mxCell>
        <mxCell id="XHGAcSni-Kbprlse5u6Y-31" value="LASSO Logistic" style="rounded=1;whiteSpace=wrap;html=1;" parent="WIyWlLk6GJQsqaUBKTNV-1" vertex="1">
          <mxGeometry x="640" y="30" width="110" height="40" as="geometry" />
        </mxCell>
        <mxCell id="XHGAcSni-Kbprlse5u6Y-32" value="XGBOOST" style="rounded=1;whiteSpace=wrap;html=1;" parent="WIyWlLk6GJQsqaUBKTNV-1" vertex="1">
          <mxGeometry x="640" y="130" width="110" height="40" as="geometry" />
        </mxCell>
        <mxCell id="XHGAcSni-Kbprlse5u6Y-35" value="" style="edgeStyle=orthogonalEdgeStyle;rounded=0;orthogonalLoop=1;jettySize=auto;html=1;" parent="WIyWlLk6GJQsqaUBKTNV-1" source="XHGAcSni-Kbprlse5u6Y-33" edge="1">
          <mxGeometry relative="1" as="geometry">
            <mxPoint x="800" y="100" as="targetPoint" />
          </mxGeometry>
        </mxCell>
        <mxCell id="XHGAcSni-Kbprlse5u6Y-33" value="" style="strokeWidth=2;html=1;shape=mxgraph.flowchart.annotation_1;align=left;pointerEvents=1;rotation=-180;" parent="WIyWlLk6GJQsqaUBKTNV-1" vertex="1">
          <mxGeometry x="750" y="50" width="20" height="100" as="geometry" />
        </mxCell>
        <mxCell id="XHGAcSni-Kbprlse5u6Y-36" value="Combine overlapping results by year" style="rounded=1;whiteSpace=wrap;html=1;" parent="WIyWlLk6GJQsqaUBKTNV-1" vertex="1">
          <mxGeometry x="800" y="75" width="110" height="45" as="geometry" />
        </mxCell>
        <mxCell id="XHGAcSni-Kbprlse5u6Y-39" value="Delete useless variable based on selection result" style="rounded=1;whiteSpace=wrap;html=1;" parent="WIyWlLk6GJQsqaUBKTNV-1" vertex="1">
          <mxGeometry x="460" y="-30" width="120" height="50" as="geometry" />
        </mxCell>
        <mxCell id="XHGAcSni-Kbprlse5u6Y-42" value="Delete useless variable based on selection result" style="rounded=1;whiteSpace=wrap;html=1;" parent="WIyWlLk6GJQsqaUBKTNV-1" vertex="1">
          <mxGeometry x="470" y="180" width="110" height="50" as="geometry" />
        </mxCell>
        <mxCell id="XHGAcSni-Kbprlse5u6Y-49" value="" style="endArrow=none;html=1;rounded=0;exitX=1;exitY=0.5;exitDx=0;exitDy=0;entryX=0.5;entryY=0;entryDx=0;entryDy=0;" parent="WIyWlLk6GJQsqaUBKTNV-1" source="XHGAcSni-Kbprlse5u6Y-39" target="XHGAcSni-Kbprlse5u6Y-31" edge="1">
          <mxGeometry width="50" height="50" relative="1" as="geometry">
            <mxPoint x="440" y="130" as="sourcePoint" />
            <mxPoint x="490" y="80" as="targetPoint" />
            <Array as="points">
              <mxPoint x="695" y="-5" />
            </Array>
          </mxGeometry>
        </mxCell>
        <mxCell id="XHGAcSni-Kbprlse5u6Y-51" value="" style="endArrow=classic;html=1;rounded=0;exitX=0;exitY=0.5;exitDx=0;exitDy=0;entryX=0.5;entryY=0;entryDx=0;entryDy=0;" parent="WIyWlLk6GJQsqaUBKTNV-1" source="XHGAcSni-Kbprlse5u6Y-39" target="XHGAcSni-Kbprlse5u6Y-14" edge="1">
          <mxGeometry width="50" height="50" relative="1" as="geometry">
            <mxPoint x="364" as="sourcePoint" />
            <mxPoint x="414" y="-50" as="targetPoint" />
            <Array as="points">
              <mxPoint x="370" y="-5" />
            </Array>
          </mxGeometry>
        </mxCell>
        <mxCell id="XHGAcSni-Kbprlse5u6Y-52" value="" style="endArrow=classic;html=1;rounded=0;exitX=0;exitY=0.5;exitDx=0;exitDy=0;entryX=0.5;entryY=1;entryDx=0;entryDy=0;" parent="WIyWlLk6GJQsqaUBKTNV-1" source="XHGAcSni-Kbprlse5u6Y-42" target="XHGAcSni-Kbprlse5u6Y-14" edge="1">
          <mxGeometry width="50" height="50" relative="1" as="geometry">
            <mxPoint x="440" y="130" as="sourcePoint" />
            <mxPoint x="490" y="80" as="targetPoint" />
            <Array as="points">
              <mxPoint x="370" y="205" />
            </Array>
          </mxGeometry>
        </mxCell>
        <mxCell id="XHGAcSni-Kbprlse5u6Y-53" value="" style="endArrow=none;html=1;rounded=0;exitX=1;exitY=0.5;exitDx=0;exitDy=0;entryX=0.5;entryY=1;entryDx=0;entryDy=0;" parent="WIyWlLk6GJQsqaUBKTNV-1" source="XHGAcSni-Kbprlse5u6Y-42" target="XHGAcSni-Kbprlse5u6Y-32" edge="1">
          <mxGeometry width="50" height="50" relative="1" as="geometry">
            <mxPoint x="440" y="130" as="sourcePoint" />
            <mxPoint x="490" y="80" as="targetPoint" />
            <Array as="points">
              <mxPoint x="695" y="205" />
            </Array>
          </mxGeometry>
        </mxCell>
        <mxCell id="XHGAcSni-Kbprlse5u6Y-54" value="" style="endArrow=classic;html=1;rounded=0;exitX=0.5;exitY=0;exitDx=0;exitDy=0;" parent="WIyWlLk6GJQsqaUBKTNV-1" source="XHGAcSni-Kbprlse5u6Y-21" edge="1">
          <mxGeometry width="50" height="50" relative="1" as="geometry">
            <mxPoint x="440" y="130" as="sourcePoint" />
            <mxPoint x="280" y="100" as="targetPoint" />
          </mxGeometry>
        </mxCell>
        <mxCell id="XHGAcSni-Kbprlse5u6Y-56" value="" style="strokeWidth=2;html=1;shape=mxgraph.flowchart.annotation_2;align=left;labelPosition=right;pointerEvents=1;" parent="WIyWlLk6GJQsqaUBKTNV-1" vertex="1">
          <mxGeometry x="910" y="50" width="100" height="100" as="geometry" />
        </mxCell>
        <mxCell id="XHGAcSni-Kbprlse5u6Y-57" value="LASSO Logistic" style="rounded=1;whiteSpace=wrap;html=1;" parent="WIyWlLk6GJQsqaUBKTNV-1" vertex="1">
          <mxGeometry x="1010" y="40" width="120" height="25" as="geometry" />
        </mxCell>
        <mxCell id="XHGAcSni-Kbprlse5u6Y-59" value="Random Forest" style="rounded=1;whiteSpace=wrap;html=1;" parent="WIyWlLk6GJQsqaUBKTNV-1" vertex="1">
          <mxGeometry x="1010" y="80" width="120" height="20" as="geometry" />
        </mxCell>
        <mxCell id="XHGAcSni-Kbprlse5u6Y-60" value="XGBOOST" style="rounded=1;whiteSpace=wrap;html=1;" parent="WIyWlLk6GJQsqaUBKTNV-1" vertex="1">
          <mxGeometry x="1010" y="140" width="120" height="20" as="geometry" />
        </mxCell>
        <mxCell id="XHGAcSni-Kbprlse5u6Y-61" value="" style="strokeWidth=2;html=1;shape=mxgraph.flowchart.annotation_2;align=left;labelPosition=right;pointerEvents=1;direction=west;" parent="WIyWlLk6GJQsqaUBKTNV-1" vertex="1">
          <mxGeometry x="1130" y="47.5" width="50" height="100" as="geometry" />
        </mxCell>
        <mxCell id="XHGAcSni-Kbprlse5u6Y-63" value="" style="endArrow=none;html=1;rounded=0;exitX=0;exitY=0.5;exitDx=0;exitDy=0;entryX=0.513;entryY=0.406;entryDx=0;entryDy=0;entryPerimeter=0;" parent="WIyWlLk6GJQsqaUBKTNV-1" source="XHGAcSni-Kbprlse5u6Y-59" target="XHGAcSni-Kbprlse5u6Y-56" edge="1">
          <mxGeometry width="50" height="50" relative="1" as="geometry">
            <mxPoint x="930" y="130" as="sourcePoint" />
            <mxPoint x="990" y="100" as="targetPoint" />
          </mxGeometry>
        </mxCell>
        <mxCell id="XHGAcSni-Kbprlse5u6Y-67" value="" style="endArrow=none;html=1;rounded=0;" parent="WIyWlLk6GJQsqaUBKTNV-1" edge="1">
          <mxGeometry width="50" height="50" relative="1" as="geometry">
            <mxPoint x="1130" y="90" as="sourcePoint" />
            <mxPoint x="1155" y="90" as="targetPoint" />
          </mxGeometry>
        </mxCell>
        <mxCell id="XHGAcSni-Kbprlse5u6Y-69" value="Model fit comparison" style="rounded=1;whiteSpace=wrap;html=1;" parent="WIyWlLk6GJQsqaUBKTNV-1" vertex="1">
          <mxGeometry x="870" y="-10" width="120" height="35" as="geometry" />
        </mxCell>
        <mxCell id="XHGAcSni-Kbprlse5u6Y-70" value="" style="endArrow=classic;html=1;rounded=0;exitX=0.46;exitY=0.979;exitDx=0;exitDy=0;exitPerimeter=0;" parent="WIyWlLk6GJQsqaUBKTNV-1" source="XHGAcSni-Kbprlse5u6Y-69" edge="1">
          <mxGeometry width="50" height="50" relative="1" as="geometry">
            <mxPoint x="990" y="160" as="sourcePoint" />
            <mxPoint x="925" y="100" as="targetPoint" />
          </mxGeometry>
        </mxCell>
        <mxCell id="XHGAcSni-Kbprlse5u6Y-71" value="Model Evaluation" style="rounded=1;whiteSpace=wrap;html=1;" parent="WIyWlLk6GJQsqaUBKTNV-1" vertex="1">
          <mxGeometry x="1180" y="70" width="120" height="60" as="geometry" />
        </mxCell>
        <mxCell id="iSrRpEZpsP3CvPLKCbSg-0" value="Random Forest" style="rounded=1;whiteSpace=wrap;html=1;" parent="WIyWlLk6GJQsqaUBKTNV-1" vertex="1">
          <mxGeometry x="640" y="80" width="110" height="40" as="geometry" />
        </mxCell>
        <mxCell id="iSrRpEZpsP3CvPLKCbSg-1" value="" style="endArrow=none;html=1;rounded=0;exitX=0;exitY=0.5;exitDx=0;exitDy=0;entryX=0.478;entryY=0.499;entryDx=0;entryDy=0;entryPerimeter=0;" parent="WIyWlLk6GJQsqaUBKTNV-1" source="iSrRpEZpsP3CvPLKCbSg-0" target="XHGAcSni-Kbprlse5u6Y-29" edge="1">
          <mxGeometry width="50" height="50" relative="1" as="geometry">
            <mxPoint x="550" y="160" as="sourcePoint" />
            <mxPoint x="600" y="110" as="targetPoint" />
          </mxGeometry>
        </mxCell>
        <mxCell id="iSrRpEZpsP3CvPLKCbSg-2" value="" style="endArrow=none;html=1;rounded=0;exitX=0;exitY=0.5;exitDx=0;exitDy=0;exitPerimeter=0;entryX=1;entryY=0.5;entryDx=0;entryDy=0;" parent="WIyWlLk6GJQsqaUBKTNV-1" source="XHGAcSni-Kbprlse5u6Y-33" target="iSrRpEZpsP3CvPLKCbSg-0" edge="1">
          <mxGeometry width="50" height="50" relative="1" as="geometry">
            <mxPoint x="550" y="160" as="sourcePoint" />
            <mxPoint x="600" y="110" as="targetPoint" />
          </mxGeometry>
        </mxCell>
        <mxCell id="KCjDMF3Q9mmmj8pFM2ZG-0" value="Logistic" style="rounded=1;whiteSpace=wrap;html=1;" vertex="1" parent="WIyWlLk6GJQsqaUBKTNV-1">
          <mxGeometry x="1010" y="110" width="120" height="20" as="geometry" />
        </mxCell>
        <mxCell id="KCjDMF3Q9mmmj8pFM2ZG-1" value="" style="endArrow=none;html=1;rounded=0;" edge="1" parent="WIyWlLk6GJQsqaUBKTNV-1">
          <mxGeometry width="50" height="50" relative="1" as="geometry">
            <mxPoint x="1010" y="120" as="sourcePoint" />
            <mxPoint x="960" y="120" as="targetPoint" />
          </mxGeometry>
        </mxCell>
        <mxCell id="KCjDMF3Q9mmmj8pFM2ZG-2" value="" style="endArrow=none;html=1;rounded=0;exitX=1;exitY=0.5;exitDx=0;exitDy=0;" edge="1" parent="WIyWlLk6GJQsqaUBKTNV-1" source="KCjDMF3Q9mmmj8pFM2ZG-0">
          <mxGeometry width="50" height="50" relative="1" as="geometry">
            <mxPoint x="1010" y="120" as="sourcePoint" />
            <mxPoint x="1155" y="120" as="targetPoint" />
          </mxGeometry>
        </mxCell>
      </root>
    </mxGraphModel>
  </diagram>
</mxfile>
